<?xml version="1.0" encoding="UTF-8" standalone="no"?>
<!-- Created with Inkscape (http://www.inkscape.org/) -->

<svg
   width="720"
   height="720"
   viewBox="0 0 64 64"
   version="1.1"
   id="svg1"
   xml:space="preserve"
   inkscape:version="1.3.2 (091e20e, 2023-11-25, custom)"
   sodipodi:docname="绘图.svg"
   xmlns:inkscape="http://www.inkscape.org/namespaces/inkscape"
   xmlns:sodipodi="http://sodipodi.sourceforge.net/DTD/sodipodi-0.dtd"
   xmlns:xlink="http://www.w3.org/1999/xlink"
   xmlns="http://www.w3.org/2000/svg"
   xmlns:svg="http://www.w3.org/2000/svg"><sodipodi:namedview
     id="namedview1"
     pagecolor="#ffffff"
     bordercolor="#000000"
     borderopacity="0.25"
     inkscape:showpageshadow="2"
     inkscape:pageopacity="0.0"
     inkscape:pagecheckerboard="0"
     inkscape:deskcolor="#d1d1d1"
     inkscape:document-units="px"
     inkscape:zoom="10.632813"
     inkscape:cx="21.725202"
     inkscape:cy="36.772961"
     inkscape:window-width="2560"
     inkscape:window-height="1346"
     inkscape:window-x="2293"
     inkscape:window-y="-11"
     inkscape:window-maximized="1"
     inkscape:current-layer="layer1" /><defs
     id="defs1"><linearGradient
       id="linearGradient12"
       inkscape:collect="always"><stop
         style="stop-color:#5d240a;stop-opacity:1;"
         offset="0"
         id="stop12" /><stop
         style="stop-color:#3c2922;stop-opacity:1;"
         offset="0.25905794"
         id="stop14" /><stop
         style="stop-color:#4b4531;stop-opacity:1;"
         offset="1"
         id="stop13" /></linearGradient><linearGradient
       id="linearGradient1"
       inkscape:collect="always"><stop
         style="stop-color:#22d7e7;stop-opacity:1;"
         offset="0"
         id="stop1" /><stop
         style="stop-color:#25f1e5;stop-opacity:1;"
         offset="0.72826082"
         id="stop2" /><stop
         style="stop-color:#29efff;stop-opacity:1;"
         offset="0.83333331"
         id="stop3" /></linearGradient><marker
       id="DistanceX"
       orient="auto"
       refX="0.0"
       refY="0.0"
       style="overflow:visible"><path
         d="M 3,-3 L -3,3 M 0,-5 L  0,5"
         style="stroke:#000000; stroke-width:0.5"
         id="path1" /></marker><pattern
       id="Hatch"
       patternUnits="userSpaceOnUse"
       width="8"
       height="8"
       x="0"
       y="0"><path
         d="M8 4 l-4,4"
         stroke="#000000"
         stroke-width="0.25"
         linecap="square"
         id="path2" /><path
         d="M6 2 l-4,4"
         stroke="#000000"
         stroke-width="0.25"
         linecap="square"
         id="path3" /><path
         d="M4 0 l-4,4"
         stroke="#000000"
         stroke-width="0.25"
         linecap="square"
         id="path4" /></pattern><symbol
       id="*MODEL_SPACE" /><symbol
       id="*PAPER_SPACE" /><marker
       id="DistanceX-4"
       orient="auto"
       refX="0.0"
       refY="0.0"
       style="overflow:visible"><path
         d="M 3,-3 L -3,3 M 0,-5 L  0,5"
         style="stroke:#000000; stroke-width:0.5"
         id="path1-2" /></marker><pattern
       id="Hatch-5"
       patternUnits="userSpaceOnUse"
       width="8"
       height="8"
       x="0"
       y="0"><path
         d="M8 4 l-4,4"
         stroke="#000000"
         stroke-width="0.25"
         linecap="square"
         id="path2-9" /><path
         d="M6 2 l-4,4"
         stroke="#000000"
         stroke-width="0.25"
         linecap="square"
         id="path3-9" /><path
         d="M4 0 l-4,4"
         stroke="#000000"
         stroke-width="0.25"
         linecap="square"
         id="path4-4" /></pattern><symbol
       id="*MODEL_SPACE-0" /><symbol
       id="*PAPER_SPACE-3" /><linearGradient
       inkscape:collect="always"
       xlink:href="#linearGradient1"
       id="linearGradient2"
       x1="62.81361"
       y1="47.161373"
       x2="62.752625"
       y2="-10.02011"
       gradientUnits="userSpaceOnUse" /><linearGradient
       inkscape:collect="always"
       xlink:href="#linearGradient12"
       id="linearGradient13"
       x1="93.037628"
       y1="28.210602"
       x2="66.147232"
       y2="16.869692"
       gradientUnits="userSpaceOnUse" /></defs><g
     inkscape:label="图层 1"
     inkscape:groupmode="layer"
     id="layer1"
     style="display:inline"><g
       id="g12"
       style="display:inline"
       transform="rotate(45,32,32)"><path
         d="M 32,43.5 A 11.5,11.5 0 0 0 43.5,32 11.5,11.5 0 0 0 32,20.5 v 4.75 A 6.75,6.75 0 0 1 38.75,32 6.75,6.75 0 0 1 32,38.75 Z"
         style="display:inline;fill:#4c4431;stroke-width:0;stroke-linecap:round;stroke-linejoin:bevel;stroke-miterlimit:10.9;fill-opacity:1"
         id="path11" /><path
         d="M 32,20.5 A 11.5,11.5 0 0 0 20.5,32 11.5,11.5 0 0 0 32,43.5 V 38.75 A 6.75,6.75 0 0 1 25.25,32 6.75,6.75 0 0 1 32,25.25 Z"
         style="display:inline;fill:#2aeefe;fill-opacity:1;stroke:none;stroke-width:0;stroke-linecap:round;stroke-linejoin:bevel;stroke-miterlimit:10.9;stroke-opacity:1"
         id="path12" /><path
         d="M 32,20.5 A 11.5,11.5 0 0 0 20.5,32 11.5,11.5 0 0 0 32,43.5 11.5,11.5 0 0 0 43.5,32 11.5,11.5 0 0 0 32,20.5 Z m 0,4.75 A 6.75,6.75 0 0 1 38.75,32 6.75,6.75 0 0 1 32,38.75 6.75,6.75 0 0 1 25.25,32 6.75,6.75 0 0 1 32,25.25 Z"
         style="display:inline;fill:none;stroke:#667e6a;stroke-width:0.8;stroke-linecap:round;stroke-linejoin:bevel;stroke-miterlimit:10.9;stroke-dasharray:none;stroke-opacity:1"
         id="path7"
         inkscape:label="内圈描边" /></g><g
       id="g10"
       transform="rotate(45,33.309267,-17.332684)"
       style="display:inline"><path
         d="m 67.266951,47.476583 v -13 a 16,16 0 0 1 -16,-16 16,16 0 0 1 16,-16.0000002 V -10.523417 h -5 v 6.1074217 c -2.718214,0.595202 -5.309476,1.6686111 -7.652344,3.1699221 l -4.318359,-4.3183596 -7.070313,7.0703126 4.31836,4.318359 C 46.04299,8.1670968 44.969572,10.75838 44.374373,13.476583 h -6.107422 v 10 h 6.107422 c 0.595212,2.718263 1.668584,5.309434 3.169922,7.652344 l -4.31836,4.318359 7.070313,7.070313 4.318359,-4.31836 c 2.342914,1.501341 4.934076,2.574709 7.652344,3.169922 v 6.107422 z"
         style="display:inline;fill:url(#linearGradient2);stroke-width:0;stroke-linecap:round;stroke-linejoin:bevel;stroke-miterlimit:10.9;fill-opacity:1"
         id="path8"
         inkscape:label="齿轮蓝" /><path
         d="M 67.266951,-10.523417 V 2.4765828 a 16,16 0 0 1 16,16.0000002 16,16 0 0 1 -16,16 v 13 h 5 v -6.107422 c 2.718279,-0.595215 5.30942,-1.668575 7.652344,-3.169922 l 4.318359,4.31836 7.070313,-7.070313 -4.31836,-4.318359 c 1.501368,-2.342957 2.574698,-4.934027 3.169922,-7.652344 h 6.107422 v -10 H 90.227888 C 89.629675,10.741646 88.547546,8.1355448 87.032576,5.7812698 l 4.275391,-4.27539 -7.070313,-7.0703126 -4.275391,4.2753906 c -2.354192,-1.514918 -4.960468,-2.5971184 -7.695312,-3.1953125 v -6.0390623 z"
         style="display:inline;fill:url(#linearGradient13);fill-opacity:1;stroke-width:0;stroke-linecap:round;stroke-linejoin:bevel;stroke-miterlimit:10.9"
         id="path9" /><path
         id="path10"
         style="display:inline;fill:none;stroke:#667e6a;stroke-width:0.8;stroke-linecap:round;stroke-linejoin:bevel;stroke-miterlimit:10.9"
         d="m 83.300499,18.51013 a 16,15.999999 0 0 1 -16,15.999999 16,15.999999 0 0 1 -16,-15.999999 16,15.999999 0 0 1 16,-15.9999991 16,15.999999 0 0 1 16,15.9999991 z M 62.266951,-10.523417 v 6.1074217 c -2.71822,0.5952032 -5.309472,1.6686091 -7.652344,3.1699221 l -4.318359,-4.3183596 -7.070313,7.0703126 4.31836,4.318359 c -1.501307,2.342862 -2.574722,4.9341352 -3.169922,7.6523442 h -6.107422 v 10 h 6.107422 c 0.595214,2.718269 1.668582,5.30943 3.169922,7.652344 l -4.31836,4.318359 7.070313,7.070313 4.318359,-4.31836 c 2.342918,1.501343 4.93407,2.574707 7.652344,3.169922 v 6.107422 h 10 v -6.107422 c 2.718285,-0.595217 5.309416,-1.668573 7.652344,-3.169922 l 4.318359,4.31836 7.070313,-7.070313 -4.31836,-4.318359 c 1.50137,-2.342961 2.574696,-4.934021 3.169922,-7.652344 h 6.107422 v -10 H 90.227888 C 89.629673,10.74164 88.54755,8.1355488 87.032576,5.7812698 l 4.275391,-4.27539 -7.070313,-7.0703126 -4.275391,4.2753906 c -2.354198,-1.514922 -4.960462,-2.5971172 -7.695312,-3.1953125 v -6.0390623 z" /></g><g
       id="Sketch"
       transform="matrix(4.0507829,0,0,-4.0507829,31.012491,20.74484)"
       style="fill:#000000;fill-opacity:1"><path
         id="Sketch_w0000"
         d="M -3.7773556,-6.0182731 V 0.46124362 L 0.24378206,-2.1365531 4.2649202,0.46124362 V -6.0182731 H 2.3210651 v 3.714923 L 0.24378206,-3.6141973 -1.8335005,-2.3033501 v -3.714923 h -1.9438551"
         stroke="#000000"
         stroke-width="0.35 px"
         style="fill:#ffffff;fill-opacity:1;fill-rule:evenodd;stroke:none;stroke-width:0.0302377;stroke-linecap:square;stroke-miterlimit:4;stroke-dasharray:none" /><title
         id="title1">b'Sketch'</title></g><g
       id="Sketch-4"
       transform="matrix(4.0507829,0,0,-4.0507829,29.460691,18.464164)"
       style="display:inline;fill:#000000;fill-opacity:1"><path
         id="Sketch_w0000-9"
         d="m -3.3942692,-6.6122722 v 6.47951681 L 0.62686866,-2.7305522 4.6480066,-0.13275539 V -6.6122722 H 2.7041515 v 3.714923 L 0.62686866,-4.2081964 -1.4504141,-2.8973492 v -3.714923 h -1.9438551"
         stroke="#000000"
         stroke-width="0.35 px"
         style="fill:none;fill-opacity:1;fill-rule:evenodd;stroke-width:0.14811952;stroke-linecap:round;stroke-miterlimit:4;stroke-dasharray:none;stroke:#667e6a;stroke-opacity:1;stroke-linejoin:round" /><title
         id="title1-3">b'Sketch'</title></g></g></svg>
